<svg width="140" height="32" viewBox="0 0 140 32" fill="none" xmlns="http://www.w3.org/2000/svg">
<path d="M105.102 6.77368H102.922C100.764 6.82364 98.6952 7.63974 97.0878 9.07493C95.4803 10.5101 94.4403 12.47 94.155 14.6015L93.8451 17.3303C93.7883 19.2676 94.4738 21.1538 95.7623 22.6058C97.0509 24.0578 98.8459 24.9668 100.783 25.1482H103.012C105.201 25.214 107.332 24.4393 108.964 22.9842C110.595 21.5291 111.603 19.505 111.779 17.3303L112.009 14.6015C112.092 13.6314 111.978 12.6546 111.672 11.7297C111.367 10.8049 110.876 9.95118 110.231 9.21994C109.586 8.4887 108.799 7.89503 107.917 7.47464C107.036 7.05424 106.078 6.81581 105.102 6.77368ZM107.371 14.3625L107.011 17.5594C106.869 18.6111 106.355 19.5778 105.561 20.286C104.768 20.9942 103.747 21.3975 102.682 21.4235H101.963C101.47 21.4345 100.98 21.3382 100.529 21.1415C100.077 20.9447 99.6742 20.6522 99.3478 20.2843C99.0213 19.9164 98.7793 19.482 98.6387 19.0114C98.4981 18.5407 98.4622 18.0452 98.5336 17.5594L98.9035 14.3625C99.0439 13.31 99.5573 12.3421 100.351 11.6336C101.145 10.925 102.167 10.5224 103.232 10.4984H103.952C104.444 10.4889 104.932 10.5862 105.382 10.7836C105.833 10.981 106.235 11.2737 106.56 11.6414C106.885 12.0092 107.126 12.443 107.266 12.9129C107.406 13.3828 107.442 13.8775 107.371 14.3625Z" fill="#303440"/>
<path d="M39.3715 6.77371H37.1922C35.1083 6.77371 33.1097 7.59842 31.6361 9.06643C30.1625 10.5344 29.3347 12.5255 29.3347 14.6015V17.3303C29.3347 18.3578 29.538 19.3752 29.933 20.3244C30.328 21.2736 30.9069 22.1358 31.6367 22.8619C32.3665 23.588 33.2328 24.1637 34.186 24.556C35.1393 24.9483 36.1608 25.1495 37.1922 25.1482H39.3715C40.4029 25.1495 41.4245 24.9483 42.3777 24.556C43.331 24.1637 44.1973 23.588 44.927 22.8619C45.6568 22.1358 46.2357 21.2736 46.6307 20.3244C47.0257 19.3752 47.2291 18.3578 47.2291 17.3303V14.6015C47.2291 12.5255 46.4012 10.5344 44.9276 9.06643C43.4541 7.59842 41.4555 6.77371 39.3715 6.77371ZM42.5205 17.5594C42.5205 18.5842 42.1119 19.5671 41.3845 20.2917C40.6571 21.0164 39.6705 21.4235 38.6418 21.4235H37.922C37.4118 21.4248 36.9063 21.3258 36.4346 21.1322C35.9628 20.9386 35.534 20.6542 35.1728 20.2953C34.8116 19.9363 34.525 19.5099 34.3294 19.0404C34.1339 18.571 34.0332 18.0677 34.0332 17.5594V14.3625C34.0332 13.3377 34.4419 12.3548 35.1693 11.6302C35.8967 10.9055 36.8833 10.4984 37.912 10.4984H38.6318C39.6605 10.4984 40.6471 10.9055 41.3745 11.6302C42.1019 12.3548 42.5105 13.3377 42.5105 14.3625L42.5205 17.5594ZM18.3781 3.51709H13.9695C13.9265 4.09236 13.7682 4.6532 13.5037 5.16639C13.2393 5.67959 12.8742 6.13471 12.43 6.50481C10.0807 5.87739 6.062 5.50891 3.78272 6.84342C1.50344 8.17794 0.783664 9.77139 0.693692 12.2014C0.603721 14.6314 2.81303 16.4639 2.81303 16.4639C2.02708 16.5493 1.30676 16.9404 0.808772 17.5521C0.310784 18.1638 0.0754134 18.9467 0.153862 19.7305C0.153862 22.7182 3.8427 23.6245 6.44188 23.6245H12.3C12.8648 23.6813 13.3882 23.945 13.7688 24.3646C14.1493 24.7842 14.3598 25.3297 14.3594 25.8951C14.3673 26.4084 14.1917 26.9077 13.8638 27.3037C13.5359 27.6996 13.0773 27.9664 12.57 28.0563H5.47219C4.60246 28.0563 3.35286 26.2736 4.11262 24.8694C2.78592 24.6803 1.56291 24.0483 0.643708 23.0767C-0.0540569 24.4136 -0.190686 25.9717 0.263828 27.4089C0.501671 28.6681 1.163 29.8089 2.13884 30.6435C3.11467 31.478 4.34679 31.9565 5.63214 32H12.8499C14.2762 31.8364 15.5963 31.1686 16.5703 30.1178C17.5444 29.067 18.1078 27.703 18.1582 26.2736C18.1582 22.5987 16.1588 19.7305 13.1598 19.7305H5.79209C4.43252 19.7305 4.41252 18.1071 5.88206 18.1071H9.62089C13.0398 18.1071 15.9689 15.6672 15.9689 12.4703C16.162 11.0232 15.8325 9.55477 15.0392 8.32732C16.9686 7.62023 18.3281 6.54465 18.3781 3.51709ZM11.5703 12.2612C11.5703 12.5902 11.5046 12.9159 11.377 13.2194C11.2495 13.5229 11.0625 13.7981 10.8271 14.0289C10.5917 14.2597 10.3126 14.4415 10.0059 14.5638C9.6993 14.686 9.37131 14.7463 9.04107 14.741H7.76147C7.43374 14.7423 7.10898 14.6791 6.80582 14.5551C6.50266 14.431 6.22707 14.2486 5.99486 14.0182C5.76266 13.7878 5.57841 13.514 5.45269 13.2124C5.32697 12.9109 5.26225 12.5877 5.26226 12.2612V11.7632C5.26226 11.1029 5.52556 10.4696 5.99426 10.0027C6.46295 9.53575 7.09864 9.27344 7.76147 9.27344H9.04107C9.70217 9.27607 10.3353 9.53955 10.8018 10.0062C11.2684 10.4728 11.5303 11.1046 11.5303 11.7632L11.5703 12.2612ZM69.2321 6.89322L66.1631 19.591L63.0241 6.89322L58.2156 6.77371L55.1466 19.6508L52.1475 6.83346H47.2091L52.5474 24.959H57.4159L60.5249 12.3707L63.324 24.959H68.3224L73.5908 6.86334L69.2321 6.89322ZM31.2441 7.21191C29.9787 6.69155 28.6123 6.46014 27.2453 6.53469C24.5362 6.53469 23.4765 10.11 23.4765 10.11L23.0767 6.8733H19.0379V25.0287H23.8564V15.6771C23.8564 11.6935 25.8558 11.2354 28.6349 11.2354C29.043 9.64253 29.9671 8.22829 31.2641 7.21191H31.2441Z" fill="#303440"/>
<path d="M113.588 6.83344H118.207L119.057 19.6508L124.305 6.77368L129.084 6.89319L130.073 19.591L135.292 6.89319H140L131.413 24.9888H126.364L125.695 12.3707L120.456 24.9888H115.588L113.588 6.83344Z" fill="#303440"/>
<path d="M70.9521 27.9467L70.3823 31.4225C70.3823 31.4225 74.1811 32.2291 75.9106 31.5021C77.64 30.7751 78.6897 29.2115 79.0996 26.5226C79.5095 23.8336 81.7188 10.8271 81.7188 10.8271L85.8974 10.7474L86.8371 7.03268H82.5385L82.7384 5.32968C82.7962 4.85083 83.0353 4.41202 83.4069 4.1029C83.7785 3.79378 84.2546 3.63769 84.7378 3.66651L86.3973 3.72627L87.1371 0.549321C85.3665 -0.0245984 83.4806 -0.151221 81.6488 0.180835C78.7397 0.748503 77.92 4.83172 77.92 6.91317H75.2208L74.2811 10.8271H77.2802L74.2811 26.8512C74.223 27.1932 74.0416 27.5022 73.7711 27.7204C73.5005 27.9386 73.1594 28.0509 72.8116 28.0364L70.9521 27.9467Z" fill="#303440"/>
<path d="M90.0756 0.0715332H94.7841L90.0756 24.9194H85.437L90.0756 0.0715332Z" fill="#303440"/>
</svg>
