<svg width="140" height="40" viewBox="0 0 140 40" fill="none" xmlns="http://www.w3.org/2000/svg">
<path d="M12.43 0H5.43L0 29.8225H18.86L20 23.7184H8.19L12.43 0ZM32.43 15.2803C31.9873 15.2767 31.5586 15.4351 31.225 15.7255C30.8915 16.0159 30.6762 16.4182 30.62 16.8562C30.567 17.053 30.5594 17.2592 30.5979 17.4594C30.6364 17.6595 30.7199 17.8483 30.8422 18.0116C30.9645 18.1748 31.1223 18.3083 31.3038 18.4019C31.4853 18.4954 31.6857 18.5467 31.89 18.5518C32.3195 18.5313 32.7279 18.3598 33.0427 18.0677C33.3575 17.7756 33.5585 17.3817 33.61 16.9559C33.72 16.4971 33.6 15.2903 32.46 15.2803H32.43ZM58.63 13.8241H62.98L63.98 8.6974H59.54L60.54 3.03212H53.88L52.88 8.6974H49.57L48.57 13.844H52.05L50.47 22.7309C49.47 28.4261 51.72 29.8823 55.01 30.381C56.8262 30.5697 58.6618 30.414 60.42 29.9222L61.09 24.9352C61.09 24.9352 58.42 25.5536 57.58 24.7656C56.74 23.9777 57.04 22.691 57.17 21.7734L58.63 13.8241ZM33.33 2.85259C30.5953 2.85851 27.9236 3.67238 25.6522 5.19146C23.3808 6.71055 21.6116 8.86676 20.5678 11.3879C19.524 13.9091 19.2525 16.6821 19.7874 19.3571C20.3224 22.032 21.6399 24.4889 23.5737 26.4177C25.5074 28.3464 27.9707 29.6605 30.6526 30.1941C33.3345 30.7277 36.1148 30.4568 38.6425 29.4158C41.1702 28.3747 43.332 26.61 44.855 24.3445C46.3781 22.079 47.1941 19.4143 47.2 16.6866C47.2 14.8743 46.8419 13.0798 46.1463 11.4055C45.4506 9.7313 44.431 8.2102 43.1458 6.92917C41.8605 5.64813 40.3347 4.63227 38.6556 3.93964C36.9765 3.247 35.177 2.89117 33.36 2.89248L33.33 2.85259ZM23 19.2599C22.8964 19.5719 22.6771 19.8324 22.387 19.9882C22.097 20.144 21.7581 20.1832 21.44 20.0978C21.2976 20.0554 21.1655 19.9841 21.052 19.8885C20.9385 19.7928 20.846 19.6748 20.7803 19.5419C20.7146 19.4089 20.6771 19.2639 20.6702 19.1159C20.6632 18.9678 20.687 18.8199 20.74 18.6814C20.8268 18.3743 21.0293 18.1125 21.3051 17.9508C21.5809 17.7891 21.9087 17.74 22.22 17.8137C22.3667 17.8571 22.5034 17.929 22.6222 18.0253C22.7409 18.1216 22.8394 18.2404 22.9119 18.3749C22.9844 18.5093 23.0295 18.6567 23.0446 18.8086C23.0597 18.9605 23.0446 19.1139 23 19.2599ZM25.76 20.1576C25.3714 20.1457 24.9899 20.0511 24.6409 19.8802C24.292 19.7093 23.9836 19.4661 23.7365 19.1667C23.4894 18.8674 23.3093 18.5189 23.2081 18.1445C23.107 17.7701 23.0872 17.3785 23.15 16.9958C23.2684 16.0335 23.7341 15.1471 24.46 14.5023C25.093 13.9192 25.9286 13.6045 26.79 13.6246C27.2439 13.5912 27.6996 13.6578 28.1248 13.8199C28.5499 13.9819 28.9341 14.2353 29.25 14.5622L28 15.789C27.8292 15.5755 27.6021 15.4138 27.3441 15.3221C27.0861 15.2305 26.8076 15.2126 26.54 15.2703C26.1632 15.3404 25.8196 15.5313 25.5615 15.8139C25.3034 16.0966 25.1449 16.4555 25.11 16.8362C25.0571 17.0065 25.0398 17.1857 25.0589 17.3629C25.0781 17.5401 25.1334 17.7115 25.2214 17.8666C25.3095 18.0217 25.4284 18.1572 25.5709 18.2647C25.7134 18.3723 25.8764 18.4496 26.05 18.4919C26.348 18.5573 26.658 18.5439 26.9492 18.4529C27.2404 18.3619 27.5027 18.1966 27.71 17.9733L28.66 19.1702C28.41 19.6988 27.05 20.2773 25.76 20.1576ZM31.76 20.1576C31.3176 20.1968 30.8721 20.1311 30.46 19.9661C30.0478 19.801 29.6805 19.5411 29.3881 19.2077C29.0957 18.8742 28.8864 18.4766 28.7772 18.0471C28.6681 17.6177 28.6622 17.1686 28.76 16.7365C28.8922 15.8003 29.3824 14.9514 30.128 14.3676C30.8736 13.7838 31.8168 13.5104 32.76 13.6046C33.1865 13.5846 33.612 13.6624 34.0036 13.8321C34.3952 14.0019 34.7425 14.259 35.0188 14.5837C35.2951 14.9084 35.493 15.2921 35.5972 15.7051C35.7014 16.1181 35.7092 16.5494 35.62 16.9659C35.5047 17.8968 35.0384 18.7489 34.3159 19.3492C33.5933 19.9494 32.6687 20.2527 31.73 20.1975L31.76 20.1576ZM45 13.844C45.4319 14.043 45.7738 14.3957 45.9588 14.8329C46.1437 15.2701 46.1584 15.7604 46 16.2079L45.35 20.008H43.35C43.35 20.008 43.93 16.4373 43.98 16.168C43.9992 16.0595 43.9941 15.9481 43.965 15.8418C43.936 15.7355 43.8838 15.6369 43.8122 15.553C43.7405 15.4691 43.6512 15.4021 43.5505 15.3567C43.4499 15.3113 43.3405 15.2886 43.23 15.2903C42.918 15.3221 42.6262 15.459 42.4026 15.6783C42.179 15.8977 42.037 16.1865 42 16.4971C41.92 16.936 41.38 20.0379 41.38 20.0379H39.38C39.38 20.0379 39.88 17.0457 39.98 16.4273C40.08 15.8089 39.9 15.3302 39.36 15.3102C39.0376 15.3162 38.7287 15.4406 38.4925 15.6596C38.2564 15.8786 38.1095 16.1768 38.08 16.4971C37.99 17.0756 37.46 20.0579 37.46 20.0579H35.46L36.53 13.9039H38.4L38.32 14.8115C38.535 14.4622 38.8388 14.1757 39.2006 13.9813C39.5623 13.7869 39.9692 13.6913 40.38 13.7044C40.7386 13.6789 41.0951 13.7769 41.39 13.982C41.6848 14.1871 41.9002 14.487 42 14.8315C42.3 14.3373 42.7671 13.9662 43.3172 13.7851C43.8672 13.6041 44.464 13.625 45 13.844ZM132.71 8.56773L125.61 22.5314L123.45 8.56773H116L120.9 29.6928C120.9 29.6928 118.98 33.9817 116.71 34.241C115.777 34.2658 114.846 34.1651 113.94 33.9418L112.94 39.5572C114.248 39.8791 115.593 40.0266 116.94 39.9961C118.816 40.0156 120.645 39.4043 122.13 38.2606C123.76 37.0836 125.02 34.9891 127.45 30.6703L140 8.56773H132.71ZM115.24 8.22861C114.021 8.0151 112.767 8.11815 111.6 8.52784C109.74 9.24597 109.09 10.3232 107.85 11.8392L108.21 8.71735H101.75L98.12 29.9522H104.9C104.9 29.9522 106.46 20.407 107.08 18.1329C107.36 17.0134 108.001 16.0166 108.904 15.2958C109.808 14.575 110.923 14.1701 112.08 14.1432C112.75 14.1425 113.419 14.1959 114.08 14.3028L115.24 8.22861ZM73 24.7756C72.11 23.9478 72.45 22.701 72.58 21.7834L74 13.8241H78.35L79.35 8.6974H74.91L75.91 3.03212H69.25L68.25 8.6974H65L64 13.844H67.49L65.9 22.7309C64.9 28.4261 67.15 29.8823 70.45 30.381C72.2629 30.5692 74.0951 30.4135 75.85 29.9222L76.52 24.9352C76.52 24.9352 73.83 25.5636 73 24.7756ZM87.72 25.2145C85.33 25.0649 83.27 23.3593 83.72 21.0752H98.79C99.1233 19.637 99.3242 18.1713 99.39 16.6966C99.51 14.4125 97.92 7.93937 89.96 8.079C82 8.21864 78.27 13.9936 77.44 18.7712C76.66 23.3194 78.19 29.4634 86 30.4608C88.1208 30.7933 90.291 30.6035 92.3214 29.9082C94.3519 29.2128 96.1812 28.0329 97.65 26.4712L93.36 23.1199C92.6522 23.888 91.7722 24.4782 90.792 24.8423C89.8118 25.2063 88.7591 25.3338 87.72 25.2145ZM89.72 12.8965C90.2438 12.864 90.7681 12.9525 91.2519 13.1551C91.7358 13.3577 92.1663 13.669 92.5098 14.0647C92.8534 14.4605 93.1007 14.9299 93.2325 15.4366C93.3644 15.9433 93.3772 16.4734 93.27 16.9859H84.08C84.4291 15.7672 85.1792 14.7012 86.2095 13.9594C87.2398 13.2176 88.4904 12.8432 89.76 12.8965H89.72Z" fill="#303440"/>
</svg>
