<svg width="60" height="60" viewBox="0 0 60 60" fill="none" xmlns="http://www.w3.org/2000/svg">
<path d="M25.72 29.48C25.1538 29.4554 24.5914 29.5835 24.0918 29.851C23.5921 30.1184 23.1736 30.5153 22.88 31H28.56C28.2656 30.516 27.8469 30.1197 27.3475 29.8524C26.848 29.5851 26.286 29.4565 25.72 29.48ZM30 2.9C24.6401 2.9 19.4006 4.48939 14.9441 7.46717C10.4875 10.445 7.01401 14.6774 4.96288 19.6293C2.91174 24.5812 2.37507 30.0301 3.42073 35.2869C4.46639 40.5438 7.04742 45.3726 10.8374 49.1626C14.6274 52.9526 19.4562 55.5336 24.7131 56.5793C29.9699 57.6249 35.4189 57.0883 40.3707 55.0371C45.3226 52.986 49.5551 49.5125 52.5328 45.056C55.5106 40.5994 57.1 35.3599 57.1 30C57.1 22.8126 54.2448 15.9196 49.1626 10.8374C44.0804 5.75517 37.1874 2.9 30 2.9ZM12.56 36.9L7.69001 27.1H11.26L14.18 33.28L17.43 27.1H21L16.12 36.85L12.56 36.9ZM31.56 33.01H22.88C23.1715 33.4973 23.5894 33.8968 24.0893 34.1661C24.5892 34.4355 25.1527 34.5646 25.72 34.54C26.243 34.5575 26.7625 34.4484 27.2343 34.2221C27.7061 33.9958 28.1163 33.6589 28.43 33.24L31.21 34.01C30.6321 34.9348 29.8199 35.6902 28.8556 36.1995C27.8914 36.7088 26.8096 36.954 25.72 36.91C22.4 36.91 19.72 34.73 19.72 32.04C19.72 29.35 22.41 27.16 25.72 27.16C29.03 27.16 31.72 29.35 31.72 32.04C31.7223 32.3633 31.6853 32.6856 31.61 33L31.56 33.01ZM39.14 29.73C38.4672 29.6643 37.7887 29.7701 37.1679 30.0377C36.5471 30.3052 36.0042 30.7258 35.59 31.26V36.9H32.38V27.08H35.64V27.81C36.7439 27.2742 37.9643 27.0232 39.19 27.08L39.14 29.73ZM46.22 36.96C45.136 36.9664 44.0651 36.7235 43.09 36.25V36.9H39.87V23.09H43.14V27.82C44.1143 27.3431 45.1853 27.0967 46.27 27.1C49.61 27.1 52.27 29.3 52.27 32.01C52.27 34.72 49.61 36.91 46.27 36.91L46.22 36.96ZM46.22 29.54C45.494 29.4848 44.7743 29.7085 44.2075 30.1656C43.6408 30.6227 43.2697 31.2788 43.17 32C43.3217 32.7097 43.7122 33.3458 44.2764 33.8022C44.8406 34.2585 45.5443 34.5075 46.27 34.5075C46.9957 34.5075 47.6994 34.2585 48.2636 33.8022C48.8278 33.3458 49.2184 32.7097 49.37 32C49.2819 31.2603 48.9087 30.5842 48.3298 30.1154C47.7508 29.6466 47.0118 29.4223 46.27 29.49L46.22 29.54ZM30 0C24.0666 0 18.2664 1.75947 13.3329 5.05591C8.39943 8.35235 4.55426 13.0377 2.28363 18.5195C0.0129986 24.0013 -0.581102 30.0333 0.576455 35.8527C1.73401 41.6721 4.59123 47.0176 8.78681 51.2132C12.9824 55.4088 18.3279 58.266 24.1473 59.4236C29.9667 60.5811 35.9987 59.987 41.4805 57.7164C46.9623 55.4458 51.6477 51.6006 54.9441 46.6671C58.2405 41.7336 60 35.9334 60 30C60 22.0435 56.8393 14.4129 51.2132 8.7868C45.5871 3.16071 37.9565 0 30 0V0ZM30 58.43C24.3771 58.43 18.8804 56.7626 14.2052 53.6387C9.52986 50.5148 5.88592 46.0746 3.73412 40.8797C1.58232 35.6848 1.01931 29.9685 2.11629 24.4536C3.21327 18.9387 5.92096 13.873 9.89697 9.89695C13.873 5.92095 18.9387 3.21325 24.4536 2.11627C29.9685 1.0193 35.6848 1.58231 40.8797 3.7341C46.0746 5.8859 50.5148 9.52985 53.6387 14.2051C56.7626 18.8804 58.43 24.3771 58.43 30C58.43 37.5401 55.4347 44.7714 50.1031 50.103C44.7714 55.4347 37.5401 58.43 30 58.43Z" fill="#303440"/>
</svg>
