<svg width="60" height="62" viewBox="0 0 60 62" fill="none" xmlns="http://www.w3.org/2000/svg">
<path d="M36.7471 21.9L30.0015 10.47C29.5553 9.71106 28.9163 9.08305 28.149 8.64936C27.3817 8.21567 26.5133 7.99167 25.6314 7.99998H11.8194C10.948 7.99839 10.0912 8.22353 9.33366 8.65318C8.57607 9.08283 7.94387 9.70213 7.49945 10.45L0.703723 21.9C0.243111 22.673 0 23.5557 0 24.455C0 25.3543 0.243111 26.2369 0.703723 27.01L7.49945 38.44C7.94262 39.1897 8.57428 39.811 9.33195 40.2424C10.0896 40.6739 10.947 40.9005 11.8194 40.9H25.6314C26.5123 40.9093 27.38 40.6868 28.1473 40.2549C28.9145 39.8231 29.5541 39.197 30.0015 38.44L36.7471 27C37.2058 26.2281 37.4479 25.3473 37.4479 24.45C37.4479 23.5526 37.2058 22.6718 36.7471 21.9Z" fill="#303440"/>
<path d="M35.0724 1C34.6118 1.77303 34.3687 2.65569 34.3687 3.555C34.3687 4.45431 34.6118 5.33697 35.0724 6.11L41.8581 17.54C42.3013 18.2897 42.9329 18.911 43.6906 19.3425C44.4483 19.7739 45.3057 20.0006 46.1781 20H60.0001" stroke="#303440" stroke-width="2" stroke-miterlimit="10"/>
<path d="M57.6444 28.0701H46.6891C45.8167 28.0695 44.9592 28.2962 44.2016 28.7276C43.4439 29.1591 42.8123 29.7804 42.3691 30.5301L35.5734 42.0001C35.1127 42.7731 34.8696 43.6558 34.8696 44.5551C34.8696 45.4544 35.1127 46.337 35.5734 47.1101L42.3691 58.5001C42.8072 59.2572 43.4367 59.8865 44.1947 60.3252C44.9527 60.7638 45.8128 60.9965 46.6891 61.0001H57.6444" stroke="#303440" stroke-width="2" stroke-miterlimit="10"/>
<path d="M37.1572 60.9999L30.3614 49.5699C29.9183 48.8202 29.2866 48.1989 28.5289 47.7674C27.7713 47.336 26.9138 47.1093 26.0415 47.1099H12.2195C11.3556 47.118 10.5085 47.3487 9.76032 47.7797C9.01218 48.2108 8.38842 48.8274 7.94959 49.5699L1.11377 60.9999" stroke="#303440" stroke-width="2" stroke-miterlimit="10"/>
</svg>
