<svg width="201" height="30" viewBox="0 0 201 30" fill="none" xmlns="http://www.w3.org/2000/svg">
<path d="M41.2047 12.7682L25.4104 28.4569C24.9229 28.946 24.3434 29.3341 23.7054 29.5989C23.0673 29.8637 22.3832 30 21.6923 30C21.0014 30 20.3173 29.8637 19.6792 29.5989C19.0412 29.3341 18.4618 28.946 17.9742 28.4569L2.17988 12.7682C1.13426 11.7174 0.424161 10.3804 0.139435 8.9263C-0.145291 7.47221 0.00815529 5.96642 0.580355 4.59949C1.15255 3.23255 2.11779 2.0659 3.35392 1.24717C4.59004 0.428435 6.0415 -0.00557599 7.52462 5.40888e-05H35.875C37.3568 -0.00260212 38.8062 0.433557 40.04 1.25343C41.2739 2.0733 42.2368 3.24011 42.8071 4.60643C43.3774 5.97275 43.5296 7.4773 43.2444 8.92999C42.9592 10.3827 42.2494 11.7183 41.2047 12.7682Z" fill="#DBBC65"/>
<path d="M36.0092 0C34.0039 0.495 32.2224 1.64679 30.949 3.27155C29.6756 4.8963 28.9836 6.90037 28.9836 8.96392C28.9836 11.0275 29.6756 13.0315 30.949 14.6563C32.2224 16.281 34.0039 17.4328 36.0092 17.9278V0Z" fill="#C49216"/>
<path d="M7.36035 17.9278C9.36565 17.4328 11.1472 16.281 12.4206 14.6563C13.694 13.0315 14.386 11.0275 14.386 8.96392C14.386 6.90037 13.694 4.8963 12.4206 3.27155C11.1472 1.64679 9.36565 0.495 7.36035 0V17.9278Z" fill="#C49216"/>
<path d="M36.6997 7.62354H35.3054V10.312H36.6997V7.62354Z" fill="white"/>
<path d="M6.65455 10.3044H8.04883V7.61602H6.65455V10.3044Z" fill="white"/>
<path d="M53.7003 10.8586H53.6553L53.7003 11.4052V22.0391H51.0767V7.91553H54.9896L58.9101 18.6318L62.8231 7.91553H66.7436V22.0391H64.1199V11.4052L64.1649 10.8586H64.1199L59.8921 22.0391H57.9206L53.7003 10.8586Z" fill="#303440"/>
<path d="M73.2581 22.0391H70.447L75.8592 7.91553H78.4829L83.8951 22.0391H81.084L80.0346 19.0437H74.3L73.2581 22.0391ZM79.3449 16.9319L77.1711 10.6564L74.9897 16.9319H79.3449Z" fill="#303440"/>
<path d="M90.2218 22.0391H87.5981V7.91553H90.3867L97.2756 17.9728V7.91553H99.8993V22.0391H97.1107L90.2218 11.9819V22.0391Z" fill="#303440"/>
<path d="M103.955 10.0498V7.91553H115.597V10.0498H111.099V22.0316H108.475V10.0498H103.955Z" fill="#303440"/>
<path d="M122.276 7.91553V22.0391H119.659V7.91553H122.276Z" fill="#303440"/>
<path d="M129.599 17.5011C129.617 17.8075 129.678 18.1099 129.779 18.3998C129.898 18.7449 130.095 19.0577 130.356 19.3134C130.672 19.641 131.056 19.8965 131.48 20.0623C132.071 20.2756 132.697 20.3748 133.324 20.3543C133.62 20.3527 133.915 20.3352 134.209 20.3019C134.552 20.2686 134.889 20.1827 135.206 20.0473C135.524 19.9015 135.804 19.6836 136.023 19.4107C136.266 19.0686 136.385 18.6539 136.36 18.235C136.377 17.8725 136.28 17.5139 136.083 17.2091C135.906 16.951 135.676 16.7339 135.408 16.5725C135.146 16.4191 134.863 16.3031 134.569 16.2281C134.276 16.1532 134.007 16.1008 133.819 16.0558L132.965 15.8986L132.133 15.7113C131.548 15.5765 130.986 15.4268 130.453 15.262C129.945 15.1044 129.467 14.864 129.037 14.5506C128.627 14.2471 128.292 13.8555 128.055 13.4048C127.79 12.8545 127.664 12.2477 127.687 11.6375C127.671 11.0576 127.786 10.4816 128.025 9.95257C128.23 9.51123 128.524 9.1163 128.887 8.79182C129.229 8.47178 129.628 8.21788 130.064 8.04296C130.48 7.88243 130.908 7.75718 131.345 7.66853C131.729 7.59294 132.117 7.54291 132.507 7.51875C132.86 7.51875 133.13 7.51875 133.324 7.51875C134.15 7.50024 134.973 7.6166 135.761 7.86323C136.379 8.05526 136.955 8.36555 137.455 8.77685C137.882 9.14523 138.227 9.59943 138.467 10.1098C138.694 10.6036 138.834 11.1332 138.879 11.675H136.278C136.238 11.2546 136.074 10.8556 135.806 10.5292C135.573 10.2707 135.286 10.0662 134.966 9.9301C134.664 9.80724 134.346 9.72903 134.022 9.69795C133.707 9.69795 133.452 9.66051 133.272 9.66051H132.672C132.354 9.6834 132.041 9.75149 131.743 9.8627C131.417 9.97866 131.122 10.1683 130.881 10.4169C130.748 10.5637 130.647 10.7353 130.581 10.9216C130.515 11.108 130.487 11.3055 130.498 11.5027C130.487 11.8226 130.585 12.137 130.776 12.3939C130.979 12.6346 131.236 12.8244 131.525 12.948C131.854 13.0982 132.199 13.2112 132.552 13.285L133.722 13.5022C134.554 13.652 135.311 13.8167 135.971 14.0039C136.583 14.1629 137.167 14.4155 137.702 14.7528C138.175 15.0644 138.56 15.4926 138.819 15.9959C139.11 16.5945 139.249 17.2555 139.224 17.9205C139.264 18.7608 139.055 19.5942 138.624 20.3169C138.248 20.8927 137.732 21.3642 137.125 21.6873C136.513 22.0027 135.851 22.2104 135.169 22.3014C134.52 22.3934 133.867 22.441 133.212 22.4436C132.193 22.4719 131.177 22.3146 130.214 21.9793C129.511 21.7242 128.872 21.3207 128.34 20.7961C127.893 20.3488 127.559 19.8022 127.365 19.2011C127.184 18.6441 127.083 18.0641 127.065 17.4787L129.599 17.5011Z" fill="#303440"/>
<path d="M168.692 13.7267V15.8685H161.398V19.9049H169.756V22.0391H158.782V7.91553H169.539V10.0498H161.406V13.7267H168.692Z" fill="#303440"/>
<path d="M182.184 7.91553H185.033L180.093 22.0391H177.094L172.154 7.91553H175.003L178.616 19.3582L182.184 7.91553Z" fill="#303440"/>
<path d="M191.33 22.0391H188.707V7.91553H191.495L198.377 17.9728V7.91553H201V22.0391H198.212L191.33 11.9819V22.0391Z" fill="#303440"/>
<path d="M148.062 7.90063H147.687V22.0392H148.062V7.90063Z" fill="#303440"/>
</svg>
